<?xml version="1.0" encoding="UTF-8" standalone="no" ?>
<!DOCTYPE svg PUBLIC "-//W3C//DTD SVG 1.1//EN" "http://www.w3.org/Graphics/SVG/1.1/DTD/svg11.dtd">
<svg xmlns="http://www.w3.org/2000/svg" xmlns:xlink="http://www.w3.org/1999/xlink" version="1.1" width="1024" height="1024" viewBox="0 0 1024 1024" xml:space="preserve">
<desc>Created with Fabric.js 2.3.6</desc>
<defs>
</defs>
<rect x="-512" y="-512" rx="0" ry="0" width="1024" height="1024" style="stroke: none; stroke-width: 0; stroke-dasharray: none; stroke-linecap: butt; stroke-linejoin: miter; stroke-miterlimit: 4; fill: rgb(255,255,255); fill-rule: nonzero; opacity: 1;" transform="translate(512 512)"/>
<path id="icon-1" d="M 50 5 C 25.1 5 5 25.1 5 50 c 0 24.9 20.1 45 45 45 s 45 -20.1 45 -45 C 95 25.1 74.9 5 50 5 z M 44.8 74.3 c -0.3 1.1 -0.9 2.1 -1.5 2.9 c -0.6 0.7 -1.2 1.3 -1.9 1.7 c -0.4 0.3 -0.8 0.5 -1.3 0.7 c -0.2 0.1 -0.3 0.1 -0.5 0.1 c -0.3 0 -0.6 -0.1 -0.8 -0.3 c -0.4 -0.3 -0.5 -0.7 -0.4 -1.2 c 0.1 -0.5 0.1 -0.9 0.2 -1.3 c 0.1 -0.7 0.1 -1.2 0 -1.7 c -0.1 -0.6 -0.2 -1.1 -0.4 -1.7 c -0.2 -0.4 -0.4 -0.9 -0.7 -1.4 c -0.3 -0.5 -0.6 -0.9 -1 -1.4 c -0.4 -0.6 -0.9 -1.2 -1.3 -1.6 l 0 0 c 0 0 -0.1 -0.1 -0.1 -0.2 c -0.1 -0.1 -0.1 -0.1 -0.2 -0.2 l -0.1 -0.1 l 0 0 c -0.1 -0.1 -0.3 -0.4 -0.4 -0.5 c -0.4 -0.4 -0.7 -0.9 -1.1 -1.5 c -0.7 -1.2 -1.3 -2.5 -1.5 -3.7 c -0.3 -1.3 -0.3 -2.7 -0.1 -3.9 c 0.3 -1.4 0.8 -2.5 1.3 -3.1 c 0.5 -0.8 1.1 -1.4 1.8 -1.9 c 0.4 -0.3 0.9 -0.6 1.3 -0.8 c 0.4 -0.2 0.9 -0.2 1.2 0.1 c 0.4 0.2 0.6 0.7 0.5 1.1 c 0 0.3 -0.1 0.8 0 1.4 c 0 0.6 0.1 1.2 0.2 1.7 c 0.1 0.6 0.3 1.1 0.5 1.5 c 0.3 0.5 0.6 0.9 0.8 1.3 c 0.3 0.4 0.7 0.8 1.1 1.3 c 0 0 0 0 0 0 c 0.1 0.1 0.1 0.1 0.2 0.2 l 0.1 0.1 c 0 0 0 0 0 0 c 0.1 0.1 0.2 0.2 0.3 0.3 l 0.1 0.1 c 0.1 0.1 0.1 0.1 0.2 0.2 l 0.3 0.3 c 0.1 0.1 0.4 0.4 0.6 0.7 c 0.8 1 1.5 2.1 2 3.2 c 0.6 1.2 0.9 2.6 1.1 3.8 C 45.3 71.8 45.2 73.1 44.8 74.3 z M 67.7 67.5 c -0.7 2.4 -1.9 4.6 -3.4 6.4 c -1.2 1.5 -2.7 2.8 -4.3 3.8 c -1.2 0.8 -2.5 1.4 -3.8 1.8 c -0.6 0.2 -1.1 0.3 -1.7 0.5 c -0.1 0 -0.2 0 -0.2 0 c -0.3 0 -0.7 -0.1 -0.9 -0.4 c -0.3 -0.3 -0.4 -0.7 -0.3 -1.1 c 0.1 -0.5 0.2 -1 0.3 -1.6 c 0.2 -0.9 0.4 -2.1 0.5 -3.4 c 0.1 -1.5 0.1 -2.7 0 -3.8 c -0.1 -1.3 -0.4 -2.5 -0.8 -3.6 c -0.4 -1 -0.9 -2 -1.5 -3.1 c -0.6 -1.1 -1.3 -2.1 -2.1 -3.1 c -0.7 -1 -1.6 -2.1 -2.8 -3.5 l 0 0 c -0.1 -0.1 -0.2 -0.2 -0.3 -0.4 c -0.1 -0.2 -0.3 -0.3 -0.4 -0.5 L 45.5 55 c 0 0 -0.7 -0.8 -0.9 -1.1 c -0.8 -0.9 -1.6 -2.1 -2.4 -3.4 c -1.6 -2.6 -2.7 -5.4 -3.3 -8.1 c -0.6 -2.8 -0.7 -5.9 -0.2 -8.6 c 0.5 -2.5 1.4 -4.8 2.8 -6.8 c 1.1 -1.6 2.4 -3.1 3.9 -4.2 c 1.2 -0.9 2.4 -1.6 3.7 -2.1 c 0.6 -0.2 1.2 -0.5 1.8 -0.6 c 0.4 -0.1 0.8 0 1.1 0.3 c 0.3 0.3 0.5 0.7 0.4 1.1 c -0.1 0.5 -0.1 1.1 -0.2 1.8 c -0.1 1 -0.2 2.2 -0.1 3.5 c 0 1.4 0.2 2.7 0.4 3.8 c 0.3 1.2 0.7 2.4 1.2 3.4 c 0.5 0.9 1 1.8 1.8 2.8 c 0.7 0.9 1.5 1.8 2.4 2.8 c 0 0 0 0 0.1 0.1 c 0.1 0.2 0.3 0.3 0.4 0.4 c 0.1 0.1 0.2 0.2 0.3 0.3 c 0 0 0 0 0 0 c 0.2 0.2 0.4 0.4 0.6 0.6 l 0.2 0.2 c 0.1 0.1 0.2 0.3 0.4 0.4 l 0.6 0.7 c 0.3 0.3 0.8 0.9 1.3 1.5 c 1.8 2.2 3.3 4.5 4.4 7 c 1.2 2.7 2 5.6 2.3 8.4 C 68.7 61.9 68.5 64.8 67.7 67.5 z" style="stroke: none; stroke-width: 1; stroke-dasharray: none; stroke-linecap: butt; stroke-linejoin: miter; stroke-miterlimit: 4; fill: rgb(151,25,37); fill-rule: nonzero; opacity: 1;" transform="translate(512 512) scale(9.054945 9.054945) translate(-50, -50) " stroke-linecap="round" />
</svg>